<svg xmlns="http://www.w3.org/2000/svg" width="260" height="182" viewBox="0 0 260 182" role="img">
<title>OBRALYT</title>
<g transform="translate(70 0) scale(1.2)">
<line x1="46" y1="22" x2="16" y2="90" stroke="#1C2B39" stroke-width="8" stroke-linecap="round"/>
<line x1="54" y1="22" x2="84" y2="90" stroke="#1C2B39" stroke-width="8" stroke-linecap="round"/>
<rect x="36" y="72" width="8" height="12" rx="1" fill="#C9922B"/>
<rect x="46" y="64" width="8" height="20" rx="1" fill="#C9922B"/>
<rect x="56" y="56" width="8" height="28" rx="1" fill="#C9922B"/>
<circle cx="50" cy="13" r="7.5" fill="#C9922B"/></g><path d="M21.3 168.55L21.3 168.55Q17.99 168.55 15.3 167.38Q12.61 166.21 10.7 164.14Q8.79 162.07 7.75 159.38Q6.72 156.68 6.72 153.65L6.72 153.65Q6.72 149.92 8.17 147.12Q9.62 144.31 12.01 142.45Q14.4 140.58 17.25 139.66Q20.11 138.74 22.91 138.74L22.91 138.74Q26.32 138.74 29.01 139.96Q31.7 141.18 33.58 143.25Q35.47 145.32 36.46 147.94Q37.45 150.57 37.45 153.33L37.45 153.33Q37.45 156.55 36.16 159.31Q34.87 162.07 32.64 164.14Q30.41 166.21 27.49 167.38Q24.57 168.55 21.3 168.55M22.87 167.45L22.87 167.45Q25.63 167.45 27.81 165.98Q30 164.5 31.26 161.63Q32.53 158.75 32.53 154.66L32.53 154.66Q32.53 150.38 31.15 147.07Q29.77 143.76 27.19 141.85Q24.61 139.94 21.03 139.94L21.03 139.94Q16.56 139.94 14.1 143.14Q11.64 146.33 11.64 151.99L11.64 151.99Q11.64 155.3 12.47 158.13Q13.3 160.96 14.79 163.08Q16.29 165.19 18.33 166.32Q20.38 167.45 22.87 167.45M62.85 151.85L62.85 151.85Q64.83 152.04 66.44 152.77L66.44 152.77Q68.64 153.79 69.89 155.56Q71.13 157.33 71.13 159.63L71.13 159.63Q71.13 162.02 69.82 163.97Q68.5 165.93 66.2 167.06Q63.91 168.18 61.01 168.18L61.01 168.18Q59.67 168.18 57.79 168.05Q55.9 167.91 54.34 167.91L54.34 167.91Q52.73 167.91 51.26 167.95Q49.78 168 48.63 168L48.63 168Q48.49 168 48.49 167.72Q48.49 167.45 48.63 167.45L48.63 167.45Q50.06 167.45 50.82 167.22Q51.58 166.99 51.88 166.3Q52.17 165.61 52.17 164.27L52.17 164.27L52.17 142.98Q52.17 141.64 51.9 140.97Q51.62 140.31 50.86 140.06Q50.11 139.8 48.68 139.8L48.68 139.8Q48.59 139.8 48.59 139.53Q48.59 139.25 48.68 139.25L48.68 139.25Q49.83 139.25 51.28 139.32Q52.73 139.39 54.34 139.39L54.34 139.39Q55.63 139.39 57.1 139.25Q58.57 139.11 59.9 139.11L59.9 139.11Q62.66 139.11 64.53 139.82Q66.39 140.54 67.36 141.87Q68.32 143.21 68.32 145.09L68.32 145.09Q68.32 147.67 66.34 149.65L66.34 149.65Q65.01 151.03 62.85 151.85M60.27 167.13L60.27 167.13Q63.54 167.13 65.01 165.45Q66.48 163.77 66.48 160.73L66.48 160.73Q66.48 157.33 64.71 155.17Q62.94 153 59.35 153L59.35 153Q58.66 153 57.51 153L57.51 153Q57.05 153.05 56.59 153.1L56.59 153.1L56.59 164.27Q56.59 165.24 56.82 165.88Q57.05 166.53 57.86 166.83Q58.66 167.13 60.27 167.13M59.12 140.03L59.12 140.03Q58.2 140.03 57.63 140.26Q57.05 140.49 56.82 141.14Q56.59 141.78 56.59 143.07L56.59 143.07L56.59 151.81Q57.05 151.81 57.42 151.81L57.42 151.81Q58.38 151.85 58.48 151.85L58.48 151.85Q61.33 151.85 62.66 150.01Q64 148.17 64 145.51L64 145.51Q64 143.8 63.47 142.56Q62.94 141.32 61.86 140.68Q60.78 140.03 59.12 140.03M112.63 168L105.22 168Q104.53 168 102.92 166.25Q101.31 164.5 99.06 161.19L99.06 161.19Q96.89 158.16 94.32 154.02L94.32 154.02Q93.54 154.11 92.71 154.11L92.71 154.11Q92.16 154.11 91.51 154.09Q90.87 154.06 90.36 154.02L90.36 154.02L90.36 164.27Q90.36 165.61 90.59 166.3Q90.82 166.99 91.58 167.22Q92.34 167.45 93.81 167.45L93.81 167.45Q93.95 167.45 93.95 167.72Q93.95 168 93.81 168L93.81 168Q92.66 168 91.24 167.95Q89.81 167.91 88.11 167.91L88.11 167.91Q86.5 167.91 85.03 167.95Q83.55 168 82.41 168L82.41 168Q82.27 168 82.27 167.72Q82.27 167.45 82.41 167.45L82.41 167.45Q83.92 167.45 84.66 167.22Q85.39 166.99 85.67 166.3Q85.95 165.61 85.95 164.27L85.95 164.27L85.95 142.98Q85.95 141.64 85.69 140.97Q85.44 140.31 84.7 140.06Q83.97 139.8 82.45 139.8L82.45 139.8Q82.36 139.8 82.36 139.53Q82.36 139.25 82.45 139.25L82.45 139.25Q83.6 139.25 85.05 139.32Q86.5 139.39 88.11 139.39L88.11 139.39Q89.58 139.39 91.42 139.25Q93.26 139.11 94.78 139.11L94.78 139.11Q98.78 139.11 100.97 140.7Q103.15 142.29 103.15 145.05L103.15 145.05Q103.15 147.67 101.68 149.74L101.68 149.74Q100.25 151.72 98 152.87L98 152.87Q101.5 158.02 104.03 161.15L104.03 161.15Q106.65 164.5 108.69 165.98Q110.74 167.45 112.63 167.45L112.63 167.45Q112.72 167.45 112.72 167.72Q112.72 168 112.63 168L112.63 168M98.6 146.66L98.6 146.66Q98.6 143.99 97.98 142.54Q97.36 141.09 96.25 140.54Q95.15 139.99 93.67 139.99L93.67 139.99Q91.88 139.99 91.12 140.65Q90.36 141.32 90.36 143.07L90.36 143.07L90.36 152.77Q91.01 152.87 91.74 152.91Q92.48 152.96 93.03 152.96L93.03 152.96Q96.11 152.96 97.36 151.42Q98.6 149.88 98.6 146.66M151.87 167.45L151.87 167.45Q152.06 167.45 152.06 167.72Q152.06 168 151.87 168L151.87 168Q150.49 168 149.04 167.91Q147.59 167.82 146.26 167.82L146.26 167.82Q144.74 167.82 143.62 167.91Q142.49 168 141.11 168L141.11 168Q140.93 168 140.93 167.72Q140.93 167.45 141.11 167.45L141.11 167.45Q143.18 167.45 143.59 166.71Q144.01 165.98 142.9 163.81L142.9 163.81L139.41 156.73L128.28 156.73L126.07 161.7Q124.87 164.5 126 165.98Q127.13 167.45 129.84 167.45L129.84 167.45Q130.07 167.45 130.07 167.72Q130.07 168 129.84 168L129.84 168Q128.46 168 127.31 167.91Q126.16 167.82 124.41 167.82Q122.66 167.82 121.63 167.91Q120.59 168 119.08 168L119.08 168Q118.89 168 118.89 167.72Q118.89 167.45 119.08 167.45L119.08 167.45Q120.32 167.45 121.21 166.94Q122.11 166.44 122.98 165.08Q123.86 163.72 124.92 161.28L124.92 161.28L134.81 138.97Q134.9 138.84 135.22 138.84Q135.54 138.84 135.59 138.97L135.59 138.97L146.86 161.7Q147.92 163.91 148.75 165.17Q149.57 166.44 150.31 166.94Q151.05 167.45 151.87 167.45M128.78 155.58L138.85 155.58L133.56 144.82L128.78 155.58M168.21 143.02L168.21 143.02L168.21 164.09Q168.21 165.24 168.44 165.84Q168.67 166.44 169.31 166.62Q169.96 166.8 171.2 166.8L171.2 166.8L173.96 166.8Q177.23 166.8 179.48 164.96Q181.73 163.12 182.47 160.09L182.47 160.09Q182.52 159.95 182.75 160Q182.98 160.04 182.98 160.18L182.98 160.18Q182.84 161.61 182.7 163.61Q182.56 165.61 182.56 167.31L182.56 167.31Q182.56 168 181.87 168L181.87 168L160.34 168Q160.25 168 160.25 167.72Q160.25 167.45 160.34 167.45L160.34 167.45Q161.82 167.45 162.58 167.22Q163.33 166.99 163.59 166.3Q163.84 165.61 163.84 164.27L163.84 164.27L163.84 142.98Q163.84 141.64 163.59 140.97Q163.33 140.31 162.58 140.06Q161.82 139.8 160.34 139.8L160.34 139.8Q160.25 139.8 160.25 139.53Q160.25 139.25 160.34 139.25L160.34 139.25Q161.45 139.25 162.92 139.32Q164.39 139.39 166 139.39L166 139.39Q167.7 139.39 169.15 139.32Q170.6 139.25 171.71 139.25L171.71 139.25Q171.84 139.25 171.84 139.53Q171.84 139.8 171.71 139.8L171.71 139.8Q170.23 139.8 169.48 140.06Q168.72 140.31 168.46 141Q168.21 141.69 168.21 143.02M199.82 142.56L206.49 152.82L211.18 145.09Q212.65 142.7 212.31 141.25Q211.96 139.8 209.8 139.8L209.8 139.8Q209.71 139.8 209.71 139.53Q209.71 139.25 209.8 139.25L209.8 139.25Q211.23 139.25 212.47 139.32Q213.71 139.39 215.74 139.39L215.74 139.39Q216.89 139.39 217.6 139.32Q218.31 139.25 219.32 139.25L219.32 139.25Q219.42 139.25 219.42 139.53Q219.42 139.8 219.32 139.8L219.32 139.8Q218.36 139.8 217.12 140.51Q215.88 141.23 214.68 142.49Q213.48 143.76 212.42 145.46L212.42 145.46L207.18 153.97L207.18 164.27Q207.18 165.61 207.41 166.3Q207.64 166.99 208.38 167.22Q209.11 167.45 210.63 167.45L210.63 167.45Q210.77 167.45 210.77 167.72Q210.77 168 210.63 168L210.63 168Q209.48 168 208.08 167.95Q206.67 167.91 204.97 167.91L204.97 167.91Q203.36 167.91 201.87 167.95Q200.37 168 199.22 168L199.22 168Q199.13 168 199.13 167.72Q199.13 167.45 199.22 167.45L199.22 167.45Q200.74 167.45 201.5 167.22Q202.26 166.99 202.53 166.3Q202.81 165.61 202.81 164.27L202.81 164.27L202.81 154.89L195.77 144.13Q194.12 141.6 193.01 140.7Q191.91 139.8 190.9 139.8L190.9 139.8Q190.76 139.8 190.76 139.53Q190.76 139.25 190.9 139.25L190.9 139.25Q191.63 139.25 192.41 139.32Q193.2 139.39 193.89 139.39L193.89 139.39Q195.17 139.39 196.53 139.37Q197.89 139.34 199.11 139.3Q200.33 139.25 201.15 139.25L201.15 139.25Q201.25 139.25 201.25 139.53Q201.25 139.8 201.15 139.8L201.15 139.8Q199.64 139.8 199.31 140.58Q198.99 141.37 199.82 142.56L199.82 142.56M235.75 140.22L235.75 140.22Q232.95 140.22 231.18 141.96Q229.41 143.71 228.39 147.12L228.39 147.12Q228.39 147.16 228.39 147.16L228.39 147.16Q228.35 147.25 228.16 147.21L228.16 147.21Q227.89 147.21 227.89 147.12L227.89 147.12Q227.98 146.47 228.07 145.34Q228.16 144.22 228.28 142.88Q228.39 141.55 228.46 140.28Q228.53 139.02 228.53 138.24L228.53 138.24Q228.53 138.01 228.79 138.01Q229.04 138.01 229.04 138.24L229.04 138.24Q229.04 138.7 229.52 138.91Q230 139.11 230.6 139.18Q231.2 139.25 231.61 139.25L231.61 139.25Q235.57 139.39 240.86 139.39L240.86 139.39Q244.13 139.39 246.04 139.32Q247.94 139.25 249.74 139.25L249.74 139.25Q251.39 139.25 252.25 139.04Q253.1 138.84 253.33 138.1L253.33 138.1Q253.37 137.92 253.6 137.92Q253.83 137.92 253.83 138.1L253.83 138.1Q253.79 138.84 253.69 140.1Q253.6 141.37 253.56 142.77Q253.51 144.17 253.46 145.34Q253.42 146.52 253.42 147.12L253.42 147.12Q253.42 147.21 253.17 147.21Q252.91 147.21 252.87 147.12L252.87 147.12Q252.36 143.48 250.66 141.85Q248.96 140.22 246.1 140.22L246.1 140.22Q244.86 140.22 244.22 140.45Q243.57 140.68 243.34 141.3Q243.11 141.92 243.11 143.07L243.11 143.07L243.11 164.27Q243.11 165.61 243.41 166.3Q243.71 166.99 244.56 167.22Q245.41 167.45 247.16 167.45L247.16 167.45Q247.3 167.45 247.3 167.72Q247.3 168 247.16 168L247.16 168Q245.92 168 244.33 167.95Q242.75 167.91 240.86 167.91L240.86 167.91Q239.07 167.91 237.5 167.95Q235.94 168 234.6 168L234.6 168Q234.51 168 234.51 167.72Q234.51 167.45 234.6 167.45L234.6 167.45Q236.35 167.45 237.23 167.22Q238.1 166.99 238.4 166.3Q238.7 165.61 238.7 164.27L238.7 164.27L238.7 142.98Q238.7 141.83 238.49 141.25Q238.28 140.68 237.64 140.45Q237 140.22 235.75 140.22" fill="#1C2B39"/>
</svg>
